<svg width="396" height="64" viewBox="0 0 396 64" fill="none" xmlns="http://www.w3.org/2000/svg">
<path d="M27.7173 0L55.1911 18.3158L27.7804 36.726L0.306641 18.4102L27.7173 0Z" fill="#1B8948"/>
<path d="M27.7173 9.09133L55.1911 27.4072L27.7804 45.8173L0.306641 27.5015L27.7173 9.09133Z" fill="#DD4F3B"/>
<path d="M27.7173 18.1827L55.1911 36.4985L27.7804 54.9087L0.306641 36.5928L27.7173 18.1827Z" fill="#FBB95B"/>
<path d="M27.7173 27.274L55.1911 45.5898L27.7804 64L0.306641 45.6842L27.7173 27.274Z" fill="#2C54C5"/>
<path d="M103.919 45.4747H88.5803L86.1215 52.7341H75.6422L90.5123 11.6367H102.104L116.974 52.7341H106.378L103.919 45.4747ZM101.343 37.747L96.2495 22.7014L91.2148 37.747H101.343Z" fill="#1A1E27"/>
<path d="M131.51 25.5114C132.681 23.7161 134.145 22.3111 135.901 21.2963C137.658 20.2425 139.609 19.7156 141.756 19.7156V30.312H139.004C136.506 30.312 134.633 30.8584 133.384 31.9512C132.135 33.005 131.51 34.8784 131.51 37.5714V52.7341H121.5V20.0669H131.51V25.5114Z" fill="#1A1E27"/>
<path d="M144.55 36.4005C144.55 33.005 145.233 30.0388 146.599 27.5019C148.004 24.965 149.936 23.0136 152.395 21.6476C154.893 20.2816 157.742 19.5986 160.942 19.5986C165.04 19.5986 168.455 20.6718 171.187 22.8184C173.958 24.965 175.773 27.9898 176.632 31.8927H165.977C165.079 29.3948 163.343 28.1459 160.767 28.1459C158.932 28.1459 157.469 28.8679 156.376 30.312C155.283 31.717 154.737 33.7465 154.737 36.4005C154.737 39.0545 155.283 41.1035 156.376 42.5476C157.469 43.9526 158.932 44.6551 160.767 44.6551C163.343 44.6551 165.079 43.4062 165.977 40.9084H176.632C175.773 44.7332 173.958 47.7384 171.187 49.924C168.416 52.1097 165.001 53.2025 160.942 53.2025C157.742 53.2025 154.893 52.5195 152.395 51.1534C149.936 49.7874 148.004 47.836 146.599 45.2991C145.233 42.7622 144.55 39.796 144.55 36.4005Z" fill="#1A1E27"/>
<path d="M202.067 19.7156C205.814 19.7156 208.819 20.9646 211.083 23.4624C213.347 25.9212 214.478 29.3168 214.478 33.649V52.7341H204.526V34.9955C204.526 32.8098 203.96 31.1121 202.828 29.9022C201.696 28.6923 200.174 28.0873 198.262 28.0873C196.349 28.0873 194.827 28.6923 193.695 29.9022C192.564 31.1121 191.998 32.8098 191.998 34.9955V52.7341H181.987V9.412H191.998V24.4577C193.012 23.0136 194.398 21.8622 196.154 21.0036C197.911 20.145 199.882 19.7156 202.067 19.7156Z" fill="#1A1E27"/>
<path d="M226.47 16.6714C224.713 16.6714 223.269 16.164 222.138 15.1493C221.045 14.0955 220.498 12.8075 220.498 11.2854C220.498 9.72423 221.045 8.43628 222.138 7.42152C223.269 6.36774 224.713 5.84085 226.47 5.84085C228.187 5.84085 229.592 6.36774 230.685 7.42152C231.817 8.43628 232.383 9.72423 232.383 11.2854C232.383 12.8075 231.817 14.0955 230.685 15.1493C229.592 16.164 228.187 16.6714 226.47 16.6714ZM231.446 20.0669V52.7341H221.435V20.0669H231.446Z" fill="#1A1E27"/>
<path d="M256.908 44.2453V52.7341H251.814C248.185 52.7341 245.355 51.856 243.326 50.0997C241.296 48.3043 240.281 45.3967 240.281 41.3767V28.3801H236.3V20.0669H240.281V12.105H250.292V20.0669H256.849V28.3801H250.292V41.4938C250.292 42.4695 250.526 43.172 250.995 43.6014C251.463 44.0307 252.244 44.2453 253.337 44.2453H256.908Z" fill="#1A1E27"/>
<path d="M272.495 25.5114C273.666 23.7161 275.129 22.3111 276.886 21.2963C278.642 20.2425 280.593 19.7156 282.74 19.7156V30.312H279.988C277.491 30.312 275.617 30.8584 274.368 31.9512C273.119 33.005 272.495 34.8784 272.495 37.5714V52.7341H262.484V20.0669H272.495V25.5114Z" fill="#1A1E27"/>
<path d="M285.535 36.342C285.535 32.9855 286.159 30.0388 287.408 27.5019C288.696 24.965 290.433 23.0136 292.618 21.6476C294.804 20.2816 297.243 19.5986 299.936 19.5986C302.239 19.5986 304.249 20.0669 305.966 21.0036C307.722 21.9403 309.069 23.1697 310.006 24.6918V20.0669H320.017V52.7341H310.006V48.1092C309.03 49.6313 307.664 50.8607 305.908 51.7974C304.19 52.7341 302.18 53.2025 299.878 53.2025C297.224 53.2025 294.804 52.5195 292.618 51.1534C290.433 49.7484 288.696 47.7774 287.408 45.2406C286.159 42.6647 285.535 39.6985 285.535 36.342ZM310.006 36.4005C310.006 33.9027 309.303 31.9317 307.898 30.4876C306.532 29.0436 304.854 28.3215 302.863 28.3215C300.873 28.3215 299.175 29.0436 297.77 30.4876C296.404 31.8927 295.721 33.8441 295.721 36.342C295.721 38.8398 296.404 40.8303 297.77 42.3134C299.175 43.7575 300.873 44.4795 302.863 44.4795C304.854 44.4795 306.532 43.7575 307.898 42.3134C309.303 40.8693 310.006 38.8984 310.006 36.4005Z" fill="#1A1E27"/>
<path d="M325.269 36.4005C325.269 33.005 325.952 30.0388 327.318 27.5019C328.723 24.965 330.655 23.0136 333.113 21.6476C335.611 20.2816 338.46 19.5986 341.661 19.5986C345.759 19.5986 349.174 20.6718 351.906 22.8184C354.677 24.965 356.492 27.9898 357.35 31.8927H346.695C345.798 29.3948 344.061 28.1459 341.485 28.1459C339.651 28.1459 338.187 28.8679 337.094 30.312C336.002 31.717 335.455 33.7465 335.455 36.4005C335.455 39.0545 336.002 41.1035 337.094 42.5476C338.187 43.9526 339.651 44.6551 341.485 44.6551C344.061 44.6551 345.798 43.4062 346.695 40.9084H357.35C356.492 44.7332 354.677 47.7384 351.906 49.924C349.135 52.1097 345.72 53.2025 341.661 53.2025C338.46 53.2025 335.611 52.5195 333.113 51.1534C330.655 49.7874 328.723 47.836 327.318 45.2991C325.952 42.7622 325.269 39.796 325.269 36.4005Z" fill="#1A1E27"/>
<path d="M382.669 52.7341L372.716 39.035V52.7341H362.705V9.412H372.716V33.3563L382.61 20.0669H394.963L381.381 36.4591L395.08 52.7341H382.669Z" fill="#1A1E27"/>
</svg>
